<svg xmlns="http://www.w3.org/2000/svg" xmlns:xlink="http://www.w3.org/1999/xlink" width="500" zoomAndPan="magnify" viewBox="0 0 375 374.999991" height="500" preserveAspectRatio="xMidYMid meet" version="1.0"><defs><g/></defs><g fill="#ffffff" fill-opacity="1"><g transform="translate(97.186046, 232.309175)"><g><path d="M 80.046875 0 L 80.046875 -19.300781 L 31.71875 -19.300781 L 31.71875 -114.15625 L 10.175781 -114.15625 L 10.175781 0 Z M 80.046875 0 "/></g></g></g><g fill="#ffffff" fill-opacity="1"><g transform="translate(176.401515, 232.309175)"><g><path d="M 55.058594 2.09375 C 87.675781 2.09375 101.140625 -15.558594 101.140625 -41.445312 L 101.140625 -114.15625 L 79.445312 -114.15625 L 79.445312 -41.445312 C 79.445312 -27.230469 73.460938 -17.207031 55.058594 -17.207031 C 36.65625 -17.207031 30.671875 -27.230469 30.671875 -41.445312 L 30.671875 -114.15625 L 8.976562 -114.15625 L 8.976562 -41.445312 C 8.976562 -15.558594 22.292969 2.09375 55.058594 2.09375 Z M 55.058594 2.09375 "/></g></g></g><g fill="#ffde59" fill-opacity="1"><g transform="translate(105.547827, 272.274856)"><g><path d="M 5.222656 0 L 5.222656 -16.039062 L 9.707031 0 L 13.179688 0 L 17.664062 -16.136719 L 17.664062 0 L 21.210938 0 L 21.210938 -18.796875 L 15.300781 -18.796875 L 11.433594 -4.285156 L 7.539062 -18.796875 L 1.675781 -18.796875 L 1.675781 0 Z M 5.222656 0 "/></g></g></g><g fill="#ffde59" fill-opacity="1"><g transform="translate(128.431763, 272.274856)"><g><path d="M 5.496094 0.269531 C 6.675781 0.269531 7.761719 0.0742188 8.625 -0.492188 C 9.140625 -0.8125 9.535156 -1.257812 9.878906 -1.871094 L 9.878906 0 L 13.207031 0 L 13.207031 -7.195312 C 13.207031 -9.117188 13.207031 -11.285156 11.578125 -12.714844 C 10.542969 -13.671875 8.992188 -14.117188 7.390625 -14.117188 C 4.65625 -14.117188 1.972656 -12.640625 1.476562 -9.410156 L 4.78125 -9.410156 C 5.027344 -10.71875 6.109375 -11.503906 7.367188 -11.503906 C 8.15625 -11.503906 8.796875 -11.285156 9.214844 -10.839844 C 9.632812 -10.398438 9.855469 -9.730469 9.878906 -8.894531 L 5.765625 -8.128906 C 4.605469 -7.910156 3.425781 -7.5625 2.539062 -6.949219 C 1.578125 -6.28125 0.960938 -5.273438 0.960938 -3.792969 C 0.960938 -1.15625 2.882812 0.269531 5.496094 0.269531 Z M 6.308594 -2.339844 C 5.148438 -2.339844 4.285156 -2.882812 4.285156 -3.917969 C 4.285156 -4.386719 4.460938 -4.730469 4.730469 -5 C 5.125 -5.371094 5.691406 -5.617188 6.652344 -5.789062 L 9.953125 -6.453125 C 9.902344 -4.632812 9.535156 -3.449219 8.082031 -2.734375 C 7.539062 -2.464844 6.921875 -2.339844 6.308594 -2.339844 Z M 6.308594 -2.339844 "/></g></g></g><g fill="#ffde59" fill-opacity="1"><g transform="translate(142.989791, 272.274856)"><g><path d="M 4.828125 0 L 4.828125 -6.40625 C 4.828125 -8.230469 5.199219 -9.335938 5.9375 -10.078125 C 6.480469 -10.59375 7.269531 -10.914062 8.402344 -10.914062 L 9.164062 -10.914062 L 9.164062 -14.117188 L 8.769531 -14.117188 C 7.144531 -14.117188 5.886719 -13.625 4.828125 -12.171875 L 4.828125 -13.820312 L 1.503906 -13.820312 L 1.503906 0 Z M 4.828125 0 "/></g></g></g><g fill="#ffde59" fill-opacity="1"><g transform="translate(152.621241, 272.274856)"><g><path d="M 4.855469 0 L 4.855469 -6.875 L 10.472656 0 L 14.5625 0 L 8.007812 -7.835938 L 14.117188 -13.820312 L 9.902344 -13.820312 L 4.855469 -8.722656 L 4.855469 -18.796875 L 1.527344 -18.796875 L 1.527344 0 Z M 4.855469 0 "/></g></g></g><g fill="#ffde59" fill-opacity="1"><g transform="translate(167.302431, 272.274856)"><g><path d="M 7.984375 0.269531 C 11.679688 0.269531 13.796875 -1.972656 14.609375 -4.65625 L 11.210938 -4.65625 C 10.765625 -3.523438 9.683594 -2.585938 8.105469 -2.585938 C 6.675781 -2.585938 5.542969 -3.324219 4.902344 -4.605469 C 4.65625 -5.027344 4.433594 -5.640625 4.386719 -6.234375 L 14.832031 -6.234375 L 14.832031 -6.949219 C 14.832031 -11.949219 11.457031 -14.117188 7.882812 -14.117188 C 3.152344 -14.117188 0.9375 -10.445312 0.9375 -6.824219 C 0.9375 -2.734375 3.746094 0.269531 7.984375 0.269531 Z M 4.535156 -8.722656 C 4.582031 -9.089844 4.707031 -9.558594 5.074219 -10.003906 C 5.714844 -10.988281 6.75 -11.480469 7.984375 -11.480469 C 9.191406 -11.480469 10.273438 -10.988281 10.914062 -10.003906 C 11.257812 -9.585938 11.382812 -9.089844 11.433594 -8.722656 Z M 4.535156 -8.722656 "/></g></g></g><g fill="#ffde59" fill-opacity="1"><g transform="translate(183.067468, 272.274856)"><g><path d="M 8.574219 0 L 8.574219 -2.757812 L 7.070312 -2.757812 C 6.035156 -2.757812 5.9375 -3.324219 5.9375 -4.039062 L 5.9375 -11.160156 L 8.597656 -11.160156 L 8.597656 -13.820312 L 5.9375 -13.820312 L 5.9375 -18.796875 L 2.613281 -18.796875 L 2.613281 -13.820312 L 0.566406 -13.820312 L 0.566406 -11.160156 L 2.613281 -11.160156 L 2.613281 -3.03125 C 2.613281 -0.886719 3.792969 0 5.839844 0 Z M 8.574219 0 "/></g></g></g><g fill="#ffde59" fill-opacity="1"><g transform="translate(192.501862, 272.274856)"><g><path d="M 8.769531 -14.09375 C 7.144531 -14.09375 5.960938 -13.625 4.855469 -12.074219 L 4.855469 -13.820312 L 1.527344 -13.820312 L 1.527344 4.976562 L 4.855469 4.976562 L 4.855469 -1.75 C 5.960938 -0.171875 7.144531 0.296875 8.769531 0.296875 C 12.394531 0.296875 14.855469 -2.660156 14.855469 -6.898438 C 14.855469 -11.136719 12.394531 -14.09375 8.769531 -14.09375 Z M 8.007812 -11.234375 C 10.125 -11.234375 11.503906 -9.410156 11.503906 -6.898438 C 11.503906 -4.386719 10.125 -2.5625 8.007812 -2.5625 C 5.886719 -2.5625 4.433594 -4.335938 4.433594 -6.898438 C 4.433594 -9.460938 5.886719 -11.234375 8.007812 -11.234375 Z M 8.007812 -11.234375 "/></g></g></g><g fill="#ffde59" fill-opacity="1"><g transform="translate(208.340793, 272.274856)"><g><path d="M 6.800781 0 L 6.800781 -2.757812 L 5.914062 -2.757812 C 5.101562 -2.757812 4.78125 -3.078125 4.78125 -4.015625 L 4.78125 -18.796875 L 1.453125 -18.796875 L 1.453125 -3.03125 C 1.453125 -0.886719 2.613281 0 4.65625 0 Z M 6.800781 0 "/></g></g></g><g fill="#ffde59" fill-opacity="1"><g transform="translate(215.779921, 272.274856)"><g><path d="M 5.496094 0.269531 C 6.675781 0.269531 7.761719 0.0742188 8.625 -0.492188 C 9.140625 -0.8125 9.535156 -1.257812 9.878906 -1.871094 L 9.878906 0 L 13.207031 0 L 13.207031 -7.195312 C 13.207031 -9.117188 13.207031 -11.285156 11.578125 -12.714844 C 10.542969 -13.671875 8.992188 -14.117188 7.390625 -14.117188 C 4.65625 -14.117188 1.972656 -12.640625 1.476562 -9.410156 L 4.78125 -9.410156 C 5.027344 -10.71875 6.109375 -11.503906 7.367188 -11.503906 C 8.15625 -11.503906 8.796875 -11.285156 9.214844 -10.839844 C 9.632812 -10.398438 9.855469 -9.730469 9.878906 -8.894531 L 5.765625 -8.128906 C 4.605469 -7.910156 3.425781 -7.5625 2.539062 -6.949219 C 1.578125 -6.28125 0.960938 -5.273438 0.960938 -3.792969 C 0.960938 -1.15625 2.882812 0.269531 5.496094 0.269531 Z M 6.308594 -2.339844 C 5.148438 -2.339844 4.285156 -2.882812 4.285156 -3.917969 C 4.285156 -4.386719 4.460938 -4.730469 4.730469 -5 C 5.125 -5.371094 5.691406 -5.617188 6.652344 -5.789062 L 9.953125 -6.453125 C 9.902344 -4.632812 9.535156 -3.449219 8.082031 -2.734375 C 7.539062 -2.464844 6.921875 -2.339844 6.308594 -2.339844 Z M 6.308594 -2.339844 "/></g></g></g><g fill="#ffde59" fill-opacity="1"><g transform="translate(230.33795, 272.274856)"><g><path d="M 7.957031 0.269531 C 11.257812 0.269531 13.847656 -1.550781 14.488281 -4.65625 L 10.890625 -4.65625 C 10.542969 -3.277344 9.558594 -2.4375 7.957031 -2.4375 C 5.8125 -2.4375 4.335938 -4.238281 4.335938 -6.996094 C 4.335938 -9.65625 5.8125 -11.40625 7.957031 -11.40625 C 9.386719 -11.40625 10.398438 -10.691406 10.816406 -9.410156 L 14.4375 -9.410156 C 13.746094 -12.269531 11.285156 -14.117188 7.957031 -14.117188 C 3.769531 -14.117188 0.9375 -11.183594 0.9375 -6.996094 C 0.9375 -2.660156 3.792969 0.269531 7.957031 0.269531 Z M 7.957031 0.269531 "/></g></g></g><g fill="#ffde59" fill-opacity="1"><g transform="translate(245.634957, 272.274856)"><g><path d="M 7.984375 0.269531 C 11.679688 0.269531 13.796875 -1.972656 14.609375 -4.65625 L 11.210938 -4.65625 C 10.765625 -3.523438 9.683594 -2.585938 8.105469 -2.585938 C 6.675781 -2.585938 5.542969 -3.324219 4.902344 -4.605469 C 4.65625 -5.027344 4.433594 -5.640625 4.386719 -6.234375 L 14.832031 -6.234375 L 14.832031 -6.949219 C 14.832031 -11.949219 11.457031 -14.117188 7.882812 -14.117188 C 3.152344 -14.117188 0.9375 -10.445312 0.9375 -6.824219 C 0.9375 -2.734375 3.746094 0.269531 7.984375 0.269531 Z M 4.535156 -8.722656 C 4.582031 -9.089844 4.707031 -9.558594 5.074219 -10.003906 C 5.714844 -10.988281 6.75 -11.480469 7.984375 -11.480469 C 9.191406 -11.480469 10.273438 -10.988281 10.914062 -10.003906 C 11.257812 -9.585938 11.382812 -9.089844 11.433594 -8.722656 Z M 4.535156 -8.722656 "/></g></g></g><path stroke-linecap="butt" transform="matrix(0.75, 0, 0, 0.75, 107.207371, 242.939266)" fill="none" stroke-linejoin="miter" d="M -0.00045308 1.997645 L 159.999557 1.997645 " stroke="#d9d9d9" stroke-width="4" stroke-opacity="1" stroke-miterlimit="4"/></svg>